<?xml version="1.0" encoding="UTF-8"?>
<svg width="35px" height="32px" viewBox="0 0 35 32" version="1.1" xmlns="http://www.w3.org/2000/svg" xmlns:xlink="http://www.w3.org/1999/xlink">
    <!-- Generator: Sketch 52.3 (67297) - http://www.bohemiancoding.com/sketch -->
    <title>logoV</title>
    <desc>Created with Sketch.</desc>
    <g id="Page-1" stroke="none" stroke-width="1" fill="none" fill-rule="evenodd">
        <g id="logoV" fill="#FFFFFF" fill-rule="nonzero">
            <path d="M1.35673718,0 C0.29055385,0 -0.26194615,0.86982 0.121970517,1.94712 L9.96213718,29.553075 C10.3471872,30.633795 11.5286872,31.513875 12.6011038,31.51929 L21.5037205,31.56204 L21.5133538,31.56204 C22.5792538,31.56204 23.1320372,30.69222 22.7481205,29.61492 L12.9079538,2.008965 C12.5229038,0.928245 11.3411205,0.048165 10.2689872,0.043035 L1.36608718,0 L1.35673718,0 Z M1.45505385,1.43526 L10.2621872,1.477725 C10.6891705,1.47972 11.3657705,1.933155 11.5655205,2.49318 L21.4054038,30.099135 C21.4088038,30.10911 21.4122038,30.11823 21.4147538,30.127065 L12.6079038,30.0846 C12.1809205,30.082605 11.5040372,29.62917 11.3045705,29.069145 L1.46440385,1.462905 C1.46128718,1.4535 1.45788718,1.444095 1.45505385,1.43526 Z" id="Fill-50"></path>
            <path d="M23.879549,0 C22.8096823,0 21.6256323,0.866685 21.2315157,1.94028 L11.1284157,29.45019 C10.7328823,30.52692 11.281699,31.40415 12.3538323,31.40928 L21.2567323,31.452315 L21.2660823,31.452315 C22.3362323,31.452315 23.519999,30.58563 23.914399,29.51175 L34.017499,2.002125 C34.4130323,0.925395 33.8642157,0.048165 32.7920823,0.043035 L23.8891823,0 C23.8857823,0 23.8826657,0 23.879549,0 M23.879549,0 L23.8823823,1.43469 L32.6892323,1.477155 C32.686399,1.48599 32.6832823,1.495395 32.679599,1.505085 L22.5762157,29.01471 C22.372499,29.570175 21.6927823,30.017625 21.2635323,30.017625 L12.456399,29.974875 C12.4595157,29.96604 12.4626323,29.95692 12.4663157,29.947515 L22.5694157,2.437605 C22.7734157,1.88214 23.452849,1.43469 23.879549,1.43469 L23.879549,0" id="Fill-52"></path>
        </g>
    </g>
</svg>